<?xml version="1.0" encoding="utf-8"?>
<!-- Generator: Adobe Illustrator 21.1.0, SVG Export Plug-In . SVG Version: 6.00 Build 0)  -->
<svg version="1.1" id="Icons" xmlns="http://www.w3.org/2000/svg" xmlns:xlink="http://www.w3.org/1999/xlink" x="0px" y="0px"
	 viewBox="0 0 48 48" style="enable-background:new 0 0 48 48;" xml:space="preserve">
<style type="text/css">
	.st0{opacity:0.15;fill:#45413C;}
	.st1{fill:#BF8256;}
	.st2{fill:#915E3A;}
	.st3{fill:none;stroke:#45413C;stroke-linecap:round;stroke-linejoin:round;stroke-miterlimit:10;}
	.st4{fill:#DEA47A;}
	.st5{fill:#DAEDF7;stroke:#45413C;stroke-linecap:round;stroke-linejoin:round;stroke-miterlimit:10;}
	.st6{fill:#BF8256;stroke:#45413C;stroke-linecap:round;stroke-linejoin:round;stroke-miterlimit:10;}
	.st7{fill:#FF6242;}
	.st8{fill:#FF866E;}
	.st9{fill:#DEBB7E;}
	.st10{fill:#B89558;}
	.st11{fill:#656769;}
	.st12{fill:#525252;}
	.st13{fill:#E04122;}
	.st14{fill:#FFFFFF;}
	.st15{fill:#F0F0F0;}
	.st16{fill:#00B8F0;}
	.st17{fill:#4ACFFF;}
	.st18{fill:#C0DCEB;}
	.st19{fill:#8CA4B8;}
	.st20{fill:#FF6242;stroke:#45413C;stroke-linecap:round;stroke-linejoin:round;stroke-miterlimit:10;}
	.st21{fill:#87898C;}
	.st22{fill:#E0E0E0;}
	.st23{fill:#E8F4FA;stroke:#45413C;stroke-linecap:round;stroke-linejoin:round;stroke-miterlimit:10;}
	.st24{fill:#656769;stroke:#45413C;stroke-linecap:round;stroke-linejoin:round;stroke-miterlimit:10;}
	.st25{fill:#DAEDF7;}
	.st26{fill:#E8F4FA;}
	.st27{fill:#ADC4D9;stroke:#45413C;stroke-linecap:round;stroke-linejoin:round;stroke-miterlimit:10;}
	.st28{fill:#87898C;stroke:#45413C;stroke-linecap:round;stroke-linejoin:round;stroke-miterlimit:10;}
	.st29{fill:#BDBEC0;}
	.st30{fill:#FFFFFF;stroke:#45413C;stroke-linecap:round;stroke-linejoin:round;stroke-miterlimit:10;}
	.st31{fill:#ADC4D9;}
	.st32{fill:none;stroke:#00AED9;stroke-linecap:round;stroke-linejoin:round;stroke-miterlimit:10;}
	.st33{fill:#FFFACF;}
	.st34{fill:#FFE500;}
	.st35{fill:#915E3A;stroke:#45413C;stroke-linecap:round;stroke-linejoin:round;stroke-miterlimit:10;}
	.st36{fill:#FFAA54;}
	.st37{fill:#627B8C;stroke:#45413C;stroke-linecap:round;stroke-linejoin:round;stroke-miterlimit:10;}
	.st38{fill:#FFFEF2;}
	.st39{fill:#FFFCE5;stroke:#45413C;stroke-linecap:round;stroke-linejoin:round;stroke-miterlimit:10;}
	.st40{fill:#00F5BC;}
	.st41{fill:#FFFCE5;}
	.st42{fill:#FFFEF2;stroke:#45413C;stroke-linecap:round;stroke-linejoin:round;stroke-miterlimit:10;}
	.st43{fill:#8CFFE4;}
	.st44{fill:#FFF5E3;}
	.st45{fill:#F7E5C6;}
	.st46{fill:#F7E5C6;stroke:#45413C;stroke-linecap:round;stroke-linejoin:round;stroke-miterlimit:10;}
	.st47{fill:#F0D5A8;}
	.st48{fill:#FF87AF;stroke:#45413C;stroke-linecap:round;stroke-linejoin:round;stroke-miterlimit:10;}
	.st49{fill:#45413C;}
	.st50{fill:#BDBEC0;stroke:#45413C;stroke-linecap:round;stroke-linejoin:round;stroke-miterlimit:10;}
	.st51{fill:#E0E0E0;stroke:#45413C;stroke-linecap:round;stroke-linejoin:round;stroke-miterlimit:10;}
	.st52{fill:#DEBB7E;stroke:#45413C;stroke-linecap:round;stroke-linejoin:round;stroke-miterlimit:10;}
	.st53{fill:#F5EBFF;stroke:#45413C;stroke-linecap:round;stroke-linejoin:round;stroke-miterlimit:10;}
	.st54{fill:#BF8DF2;stroke:#45413C;stroke-linecap:round;stroke-linejoin:round;stroke-miterlimit:10;}
	.st55{fill:#E4FFD1;stroke:#45413C;stroke-linecap:round;stroke-linejoin:round;stroke-miterlimit:10;}
	.st56{fill:#F0FFE5;}
	.st57{fill:#C8FFA1;stroke:#45413C;stroke-linecap:round;stroke-linejoin:round;stroke-miterlimit:10;}
	.st58{fill:#6DD627;stroke:#45413C;stroke-linecap:round;stroke-linejoin:round;stroke-miterlimit:10;}
	.st59{fill:#E5FEFF;}
	.st60{fill:#FFAA54;stroke:#45413C;stroke-linecap:round;stroke-linejoin:round;stroke-miterlimit:10;}
	.st61{fill:#9CEB60;stroke:#45413C;stroke-linecap:round;stroke-linejoin:round;stroke-miterlimit:10;}
	.st62{fill:#FFF48C;}
	.st63{fill:#00B8F0;stroke:#45413C;stroke-linecap:round;stroke-linejoin:round;stroke-miterlimit:10;}
	.st64{fill:none;stroke:#4F4B45;stroke-linejoin:round;stroke-miterlimit:10;}
	.st65{fill:#FFFFFF;stroke:#4F4B45;stroke-linejoin:round;stroke-miterlimit:10;}
	.st66{fill:#FFF5E3;stroke:#4F4B45;stroke-linejoin:round;stroke-miterlimit:10;}
	.st67{fill:#F7E5C6;stroke:#4F4B45;stroke-linejoin:round;stroke-miterlimit:10;}
	.st68{fill:#6DD627;}
	.st69{fill:#EBCB00;}
	.st70{fill:#46B000;}
	.st71{fill:none;stroke:#E0E0E0;stroke-linecap:round;stroke-linejoin:round;stroke-miterlimit:10;}
	.st72{fill:#9CEB60;}
	.st73{fill:#FFCC99;}
	.st74{fill:#BF8DF2;}
	.st75{fill:#9F5AE5;}
	.st76{fill:#DABFF5;}
	.st77{fill:#F0F0F0;stroke:#45413C;stroke-linecap:round;stroke-linejoin:round;stroke-miterlimit:10;}
	.st78{fill:#E5F8FF;}
	.st79{fill:#B8ECFF;}
	.st80{fill:#D9FDFF;}
	.st81{fill:#C0DCEB;stroke:#45413C;stroke-linecap:round;stroke-linejoin:round;stroke-miterlimit:10;}
	.st82{fill:#46B000;stroke:#45413C;stroke-linecap:round;stroke-linejoin:round;stroke-miterlimit:10;}
	.st83{fill:none;stroke:#FFFFFF;stroke-miterlimit:10;}
	.st84{fill:none;stroke:#FFFFFF;stroke-linecap:round;stroke-linejoin:round;stroke-miterlimit:10;}
	.st85{fill:#FFE500;stroke:#45413C;stroke-linecap:round;stroke-linejoin:round;stroke-miterlimit:10;}
	.st86{fill:#80DDFF;stroke:#45413C;stroke-linecap:round;stroke-linejoin:round;stroke-miterlimit:10;}
	.st87{fill:#FFFFFF;stroke:#45413C;stroke-linejoin:round;stroke-miterlimit:10;}
	.st88{fill:#009FD9;stroke:#45413C;stroke-linecap:round;stroke-linejoin:round;stroke-miterlimit:10;}
	.st89{fill:#E04122;stroke:#45413C;stroke-linecap:round;stroke-linejoin:round;stroke-miterlimit:10;}
	.st90{fill:#009FD9;}
	.st91{fill:#FFFFFF;stroke:#45413C;stroke-miterlimit:10;}
	.st92{fill:#009FD9;stroke:#45413C;stroke-miterlimit:10;}
	.st93{fill:#FF8A14;stroke:#45413C;stroke-linecap:round;stroke-linejoin:round;stroke-miterlimit:10;}
	.st94{fill:none;stroke:#009FD9;stroke-linecap:round;stroke-linejoin:round;stroke-miterlimit:10;}
	.st95{fill:#525252;stroke:#45413C;stroke-linecap:round;stroke-linejoin:round;stroke-miterlimit:10;}
	.st96{fill:none;stroke:#46B000;stroke-linecap:round;stroke-linejoin:round;stroke-miterlimit:10;}
	.st97{fill:none;stroke:#E04122;stroke-linecap:round;stroke-linejoin:round;stroke-miterlimit:10;}
	.st98{fill:#6DD627;stroke:#45413C;stroke-miterlimit:10;}
	.st99{fill:none;stroke:#45413C;stroke-linejoin:round;stroke-miterlimit:10;}
	.st100{fill:#46B000;stroke:#45413C;stroke-miterlimit:10;}
	.st101{fill:#00DFEB;}
	.st102{fill:#00AD85;}
	.st103{fill:#E04122;stroke:#45413C;stroke-miterlimit:10;}
</style>
<g>
	<ellipse id="XMLID_17616_" class="st0" cx="23.6" cy="43.4" rx="14.1" ry="2.1"/>
	<path class="st31" d="M37.3,37.3l-7.2-14l-7.3,3.8l7.2,14c0.4,0.7,4.4,2.9,5.7,2.2S37.7,38,37.3,37.3z"/>
	<path id="XMLID_17615_" class="st19" d="M33.2,29.4l-7.3,3.8l3.4,6.5c0.9,0.1,2.4-0.3,4.1-1.2c1.6-0.8,2.8-1.8,3.2-2.6L33.2,29.4z"
		/>
	<path class="st3" d="M37.3,37.3l-7.2-14l-7.3,3.8l7.2,14c0.4,0.7,4.4,2.9,5.7,2.2S37.7,38,37.3,37.3z"/>
	<path id="XMLID_17614_" class="st3" d="M29.2,39.5c0,0,4.7-1.6,5.7-6.9"/>
	<path id="XMLID_17613_" class="st3" d="M31.7,42.3c1.4-0.7,4.1-2.6,4.9-6.5"/>
	<polygon id="XMLID_17612_" class="st18" points="23.4,29.8 19,34.2 21.3,38.6 27.4,37.5 35.9,33.1 40.3,28.8 38,24.3 31.9,25.4 	
		"/>
	<polygon id="XMLID_17611_" class="st31" points="39.1,26.4 34.7,30.8 26.2,35.2 20.1,36.3 21.3,38.6 27.4,37.5 35.9,33.1 
		40.3,28.8 	"/>
	<polygon id="XMLID_17610_" class="st3" points="23.4,29.8 19,34.2 21.3,38.6 27.4,37.5 35.9,33.1 40.3,28.8 38,24.3 31.9,25.4 	"/>
	<polygon id="XMLID_17609_" class="st25" points="21.1,25.4 16.7,29.7 19,34.2 25.1,33.1 33.6,28.7 38,24.3 35.7,19.9 29.6,21 	"/>
	<path class="st14" d="M33.1,23.5c1.6-0.3,3.1,0.5,3.9,1.9l1.1-1.1l-2.3-4.4L29.6,21l-8.4,4.4l-4.4,4.4l1.1,2.1
		c2.2-2.2,4.8-4,7.5-5.5l1.1-0.6C28.5,24.6,30.8,23.9,33.1,23.5z"/>
	<polygon id="XMLID_17608_" class="st3" points="21.1,25.4 16.7,29.7 19,34.2 25.1,33.1 33.6,28.7 38,24.3 35.7,19.9 29.6,21 	"/>
	<path class="st31" d="M30.5,24.2l-5.9-11.3l-7.3,3.8L23.2,28c0.4,0.7,2.3,0.4,4.3-0.6C29.6,26.4,30.9,24.9,30.5,24.2z"/>
	<path id="XMLID_17607_" class="st19" d="M24.7,12.9l-7.3,3.8l3.4,6.5c0.9,0.1,2.4-0.3,4.1-1.2c1.6-0.8,2.8-1.8,3.2-2.6L24.7,12.9z"
		/>
	<path class="st3" d="M30.5,24.2l-5.9-11.3l-7.3,3.8L23.2,28c0.4,0.7,2.3,0.4,4.3-0.6C29.6,26.4,30.9,24.9,30.5,24.2z"/>
	<path id="XMLID_17606_" class="st3" d="M20.7,23.2c0,0,4.7-1.6,5.7-6.9"/>
	<path id="XMLID_17605_" class="st3" d="M22.7,27.1c0,0,4.7-1.6,5.7-6.9"/>
	<polygon id="XMLID_17604_" class="st18" points="14.4,12.4 10,16.8 12.3,21.2 18.4,20.1 26.9,15.8 31.3,11.4 29,6.9 22.9,8 	"/>
	<polygon id="XMLID_17603_" class="st31" points="30.1,9.1 25.7,13.4 17.2,17.8 11.1,18.9 12.3,21.2 18.4,20.1 26.9,15.8 31.3,11.4 
			"/>
	<polygon id="XMLID_17602_" class="st3" points="14.4,12.4 10,16.8 12.3,21.2 18.4,20.1 26.9,15.8 31.3,11.4 29,6.9 22.9,8 	"/>
	<polygon id="XMLID_17601_" class="st25" points="12.1,8 7.7,12.4 10,16.8 16.1,15.7 24.6,11.3 29,6.9 26.7,2.5 20.6,3.6 	"/>
	<path class="st14" d="M24.1,6.1c1.6-0.3,3.1,0.5,3.9,1.9L29,6.9l-2.3-4.4l-6.1,1.1L12.1,8l-4.4,4.4l1.1,2.1c2.2-2.2,4.8-4,7.5-5.5
		l1.1-0.6C19.5,7.3,21.7,6.5,24.1,6.1z"/>
	<polygon id="XMLID_17600_" class="st3" points="12.1,8 7.7,12.4 10,16.8 16.1,15.7 24.6,11.3 29,6.9 26.7,2.5 20.6,3.6 	"/>
	<line id="XMLID_17599_" class="st3" x1="16.1" y1="15.7" x2="18.4" y2="20.1"/>
	<line id="XMLID_17598_" class="st3" x1="24.6" y1="11.3" x2="26.9" y2="15.8"/>
	<line id="XMLID_17597_" class="st3" x1="25.1" y1="33.1" x2="27.4" y2="37.5"/>
	<line id="XMLID_17596_" class="st3" x1="33.6" y1="28.7" x2="35.9" y2="33.1"/>
</g>
</svg>
